<svg width="600.000000" height="600.000000" viewBox="0 0 600 600" fill="none" xmlns="http://www.w3.org/2000/svg" xmlns:xlink="http://www.w3.org/1999/xlink">
	<desc>
			Created with Pixso.
	</desc>
	<defs>
		<filter id="filter_14_23_dd" x="300.000000" y="367.000000" width="282.000000" height="223.000000" filterUnits="userSpaceOnUse" color-interpolation-filters="sRGB">
			<feFlood flood-opacity="0" result="BackgroundImageFix"/>
			<feGaussianBlur in="BackgroundImage" stdDeviation="13.3333"/>
			<feComposite in2="SourceAlpha" operator="in" result="effect_backgroundBlur_1"/>
			<feBlend mode="normal" in="SourceGraphic" in2="effect_backgroundBlur_1" result="shape"/>
		</filter>
		<clipPath id="clip14_15">
			<rect id="Дриббл-шот" width="600.000000" height="600.000000" fill="white" fill-opacity="0"/>
		</clipPath>
	</defs>
	<g clip-path="url(#clip14_15)">
		<rect id="Прямоугольник 1" x="64.000000" y="19.000000" rx="46.000000" width="390.000000" height="549.000000" stroke="#464242" stroke-opacity="1.000000" stroke-width="18.000000"/>
		<rect id="Прямоугольник 2" x="104.500000" y="58.500000" rx="20.000000" width="143.000000" height="140.000000" stroke="#DE4343" stroke-opacity="1.000000" stroke-width="7.000000"/>
		<rect id="Прямоугольник 2" x="269.500000" y="58.500000" rx="20.000000" width="143.000000" height="140.000000" stroke="#DE4343" stroke-opacity="1.000000" stroke-width="7.000000"/>
		<rect id="Прямоугольник 2" x="104.500000" y="388.500000" rx="20.000000" width="143.000000" height="140.000000" stroke="#DE4343" stroke-opacity="1.000000" stroke-width="7.000000"/>
		<rect id="Прямоугольник 2" x="269.500000" y="388.500000" rx="20.000000" width="143.000000" height="140.000000" stroke="#DE4343" stroke-opacity="1.000000" stroke-width="7.000000"/>
		<rect id="Прямоугольник 2" x="104.500000" y="223.499985" rx="20.000000" width="143.000000" height="140.000000" stroke="#DE4343" stroke-opacity="1.000000" stroke-width="7.000000"/>
		<rect id="Прямоугольник 2" x="269.500000" y="223.499985" rx="20.000000" width="143.000000" height="140.000000" stroke="#DE4343" stroke-opacity="1.000000" stroke-width="7.000000"/>
		<g filter="url(#filter_14_23_dd)">
			<rect id="Прямоугольник 3" x="300.000000" y="367.000000" rx="64.000000" width="282.000000" height="223.000000" fill="#212121" fill-opacity="0.731429"/>
		</g>
		<path id="A-Z" d="M342.2 498.32L331.66 528L318.37 528L356.83 423.27L369.91 423.27L408.37 528L395.08 528L384.53 498.32L342.2 498.32ZM559.74 528L487.52 528L487.52 518.78L543.99 434.52L486.89 434.52L486.89 423.27L559.1 423.27L559.1 432.48L502.64 516.75L559.74 516.75L559.74 528ZM362.95 439.82L346.18 487.07L380.52 487.07L363.76 439.82L362.95 439.82ZM422.27 470.02L468.08 470.02L468.08 481.27L422.27 481.27L422.27 470.02Z" fill="#EA3939" fill-opacity="1.000000" fill-rule="evenodd"/>
	</g>
</svg>
