<svg width="2146" height="3416" viewBox="0 0 2146 3416" fill="none" xmlns="http://www.w3.org/2000/svg">
<path d="M1594 3333H1959C2002.08 3333 2037 3298.08 2037 3255V2902" stroke="#909090" stroke-width="49"/>
<rect x="66" y="48" width="2014" height="2734" rx="199" fill="#7B7878" stroke="#4C4545" stroke-width="34"/>
<path d="M65 3117C65 3256.73 178.272 3370 318 3370H1675C1899.23 3370 2081 3188.23 2081 2964V970H65V3117Z" fill="#FFD51C" stroke="#4C4545" stroke-width="32"/>
<rect x="196.5" y="153.5" width="1753" height="703" rx="111.5" fill="#686868" stroke="#505050" stroke-width="19"/>
<rect x="190.677" y="673.371" width="196.597" height="196.597" rx="98.2986" transform="rotate(-6 190.677 673.371)" fill="#373737" stroke="#4E4E4E" stroke-width="12"/>
<rect x="281.237" y="679.15" width="17.6777" height="166.171" rx="2.5" transform="rotate(-6 281.237 679.15)" fill="black"/>
<rect x="217.011" y="778.332" width="17.6777" height="166.171" rx="2.5" transform="rotate(-96 217.011 778.332)" fill="black"/>
<rect x="1805.74" y="630.621" width="196.597" height="196.597" rx="98.2986" transform="rotate(24.5285 1805.74 630.621)" fill="#373737" stroke="#4E4E4E" stroke-width="12"/>
<rect x="1880.81" y="681.6" width="17.6777" height="166.171" rx="2.5" transform="rotate(24.5285 1880.81 681.6)" fill="black"/>
<rect x="1775.1" y="734.405" width="17.6777" height="166.171" rx="2.5" transform="rotate(-65.4715 1775.1 734.405)" fill="black"/>
<rect x="193" y="153" width="197" height="197" rx="98.5" fill="#373737" stroke="#4E4E4E" stroke-width="12"/>
<rect x="283" y="169" width="17" height="166" rx="2.5" fill="black"/>
<rect x="209" y="261" width="18" height="166" rx="2.5" transform="rotate(-90 209 261)" fill="black"/>
<rect x="484" y="162" width="113" height="686" rx="56.5" fill="#292929" stroke="#505050" stroke-width="14"/>
<rect x="636" y="162" width="113" height="686" rx="56.5" fill="#292929" stroke="#505050" stroke-width="14"/>
<rect x="788" y="162" width="114" height="681" rx="57" fill="#292929" stroke="#505050" stroke-width="14"/>
<rect x="940" y="289" width="114" height="554" rx="57" fill="#292929" stroke="#505050" stroke-width="14"/>
<rect x="1092" y="289" width="114" height="559" rx="57" fill="#292929" stroke="#505050" stroke-width="14"/>
<rect x="1244" y="158" width="114" height="690" rx="57" fill="#292929" stroke="#505050" stroke-width="14"/>
<rect x="1397" y="158" width="113" height="685" rx="56.5" fill="#292929" stroke="#505050" stroke-width="14"/>
<rect x="1549" y="158" width="113" height="685" rx="56.5" fill="#292929" stroke="#505050" stroke-width="14"/>
<rect x="1739.45" y="169.955" width="196.597" height="196.597" rx="98.2986" transform="rotate(-10.7457 1739.45 169.955)" fill="#373737" stroke="#4E4E4E" stroke-width="12"/>
<rect x="1830.18" y="168.22" width="17.6777" height="166.171" rx="2.5" transform="rotate(-10.7457 1830.18 168.22)" fill="black"/>
<rect x="1774.38" y="272.377" width="17.6777" height="166.171" rx="2.5" transform="rotate(-100.746 1774.38 272.377)" fill="black"/>
<rect x="951.5" y="179.5" width="264" height="84" rx="42" fill="#AE2A2A" stroke="#424141" stroke-width="15"/>
<rect x="161.5" y="1071.5" width="1809" height="849" rx="102.5" fill="#28440E" stroke="#4E4E06" stroke-width="11"/>
<rect x="483" y="2701" width="1135" height="567" rx="57" fill="#FFD51C" stroke="#F6CC12" stroke-width="24"/>
<rect x="806" y="2764" width="456" height="138" rx="10" fill="#F5CC15"/>
<rect x="1195" y="2803" width="99" height="63" rx="6" fill="#F5CC15"/>
<rect x="806" y="3054" width="456" height="138" rx="10" fill="#F5CC15"/>
<rect x="1195" y="3093" width="99" height="63" rx="6" fill="#F5CC15"/>
<mask id="path-32-inside-1_184_2" fill="white">
<rect x="1608" y="2937" width="67" height="78" rx="6"/>
</mask>
<rect x="1608" y="2937" width="67" height="78" rx="6" fill="#FFD51C" stroke="#2F2F2F" stroke-width="34" mask="url(#path-32-inside-1_184_2)"/>
<rect x="1605" y="2838" width="25" height="269" fill="#2E2C2C"/>
</svg>
