<svg width="500" height="500" viewBox="0 0 500 500" fill="none" xmlns="http://www.w3.org/2000/svg">
<g clip-path="url(#clip0_189_76)">
<g clip-path="url(#clip1_189_76)">
<path d="M250 0V500" stroke="#D7E9EB" stroke-width="20"/>
<path d="M0 250H500" stroke="#D7E9EB" stroke-width="20"/>
<path d="M36 36L465 463" stroke="#D7E9EB" stroke-width="20"/>
<path d="M465 36L36 463" stroke="#D7E9EB" stroke-width="20"/>
<path d="M250 50L300 125" stroke="#D7E9EB" stroke-width="20"/>
<path d="M250 50L200 125" stroke="#D7E9EB" stroke-width="20"/>
<path d="M250 450L300 375" stroke="#D7E9EB" stroke-width="20"/>
<path d="M250 450L200 375" stroke="#D7E9EB" stroke-width="20"/>
<path d="M50 250L125 200" stroke="#D7E9EB" stroke-width="20"/>
<path d="M50 250L125 300" stroke="#D7E9EB" stroke-width="20"/>
<path d="M450 250L375 200" stroke="#D7E9EB" stroke-width="20"/>
<path d="M450 250L375 300" stroke="#D7E9EB" stroke-width="20"/>
<path d="M250 125L325 200" stroke="#D7E9EB" stroke-width="20"/>
<path d="M250 125L175 200" stroke="#D7E9EB" stroke-width="20"/>
<path d="M250 375L325 300" stroke="#D7E9EB" stroke-width="20"/>
<path d="M250 375L175 300" stroke="#D7E9EB" stroke-width="20"/>
<path d="M125 125L75 75" stroke="#D7E9EB" stroke-width="20"/>
<path d="M81 131L131 81" stroke="#D7E9EB" stroke-width="20"/>
<path d="M125 375L75 425" stroke="#D7E9EB" stroke-width="20"/>
<path d="M81 369L131 419" stroke="#D7E9EB" stroke-width="20"/>
<path d="M419 131L369 81" stroke="#D7E9EB" stroke-width="20"/>
<path d="M375 125L425 75" stroke="#D7E9EB" stroke-width="20"/>
<path d="M419 369L369 419" stroke="#D7E9EB" stroke-width="20"/>
<path d="M375 375L425 425" stroke="#D7E9EB" stroke-width="20"/>
</g>
</g>
<defs>
<clipPath id="clip0_189_76">
<rect width="500" height="500" fill="white"/>
</clipPath>
<clipPath id="clip1_189_76">
<rect width="500" height="500" fill="white"/>
</clipPath>
</defs>
</svg>
