<svg width="600.000000" height="600.000000" viewBox="0 0 600 600" fill="none" xmlns="http://www.w3.org/2000/svg" xmlns:xlink="http://www.w3.org/1999/xlink">
	<desc>
			Created with Pixso.
	</desc>
	<defs>
		<clipPath id="clip3_1">
			<rect id="Дриббл-шот" width="600.000000" height="600.000000" fill="white" fill-opacity="0"/>
		</clipPath>
		<linearGradient x1="300.500000" y1="33.000000" x2="300.500000" y2="566.000000" id="paint_linear_3_11_0" gradientUnits="userSpaceOnUse">
			<stop stop-color="#35457E"/>
			<stop offset="1.000000" stop-color="#1D2C5E"/>
		</linearGradient>
		<linearGradient x1="300.500000" y1="133.000000" x2="300.500000" y2="467.000000" id="paint_linear_3_31_0" gradientUnits="userSpaceOnUse">
			<stop stop-color="#101010"/>
			<stop offset="0.992366" stop-color="#0E0E0E" stop-opacity="0.800000"/>
		</linearGradient>
	</defs>
	<g clip-path="url(#clip3_1)">
		<rect id="Прямоугольник 4" x="35.000000" y="33.000000" rx="117.000000" width="531.000000" height="533.000000" fill="url(#paint_linear_3_11_0)" fill-opacity="1.000000"/>
		<rect id="Прямоугольник 5" x="124.000000" y="133.000000" rx="40.000000" width="353.000000" height="334.000000" fill="url(#paint_linear_3_31_0)" fill-opacity="1.000000"/>
		<rect id="Прямоугольник 6" x="142.000000" y="351.000000" rx="30.500000" width="316.000000" height="99.000000" fill="#000000" fill-opacity="1.000000"/>
		<rect id="Прямоугольник 6" x="147.000000" y="356.000000" rx="26.000000" width="156.000000" height="89.000000" fill="#4BA340" fill-opacity="1.000000"/>
		<rect id="Прямоугольник 7" x="147.000000" y="319.000000" rx="11.000000" width="39.000000" height="22.000000" fill="#41993A" fill-opacity="0.411429"/>
		<rect id="Прямоугольник 7" x="192.000000" y="319.000000" rx="11.000000" width="39.000000" height="22.000000" fill="#41993A" fill-opacity="0.411429"/>
		<rect id="Прямоугольник 7" x="142.000000" y="163.000000" rx="17.500000" width="158.000000" height="40.000000" fill="#3A3A3A" fill-opacity="0.451429"/>
		<rect id="Прямоугольник 7" x="306.000000" y="163.000000" rx="17.500000" width="90.000000" height="40.000000" fill="#3A3A3A" fill-opacity="0.451429"/>
		<rect id="Прямоугольник 7" x="192.000000" y="218.000000" rx="17.500000" width="158.000000" height="40.000000" fill="#3A3A3A" fill-opacity="0.451429"/>
		<rect id="Прямоугольник 7" x="356.000000" y="218.000000" rx="17.500000" width="90.000000" height="40.000000" fill="#3A3A3A" fill-opacity="0.451429"/>
	</g>
</svg>
