<svg width="600.000000" height="600.000000" viewBox="0 0 600 600" fill="none" xmlns="http://www.w3.org/2000/svg" xmlns:xlink="http://www.w3.org/1999/xlink">
	<desc>
			Created with Pixso.
	</desc>
	<defs>
		<clipPath id="clip3_1">
			<rect id="Дриббл-шот" width="600.000000" height="600.000000" fill="white" fill-opacity="0"/>
		</clipPath>
	</defs>
	<g clip-path="url(#clip3_1)">
		<rect id="Прямоугольник 4" x="35.000000" y="33.000000" rx="98.000000" width="531.000000" height="533.000000" fill="#1D2541" fill-opacity="1.000000"/>
		<rect id="Прямоугольник 4" x="53.000000" y="51.000000" rx="98.000000" width="495.000000" height="497.000000" stroke="#213971" stroke-opacity="1.000000" stroke-width="36.000000"/>
		<rect id="Прямоугольник 5" x="96.000000" y="93.000000" rx="47.000000" width="408.000000" height="193.000000" fill="#121212" fill-opacity="1.000000"/>
		<rect id="Прямоугольник 5" x="96.000000" y="315.000000" rx="47.000000" width="408.000000" height="193.000000" fill="#121212" fill-opacity="1.000000"/>
		<rect id="Прямоугольник 6" x="117.000000" y="430.000000" rx="27.500000" width="365.000000" height="55.000000" fill="#0D0D0D" fill-opacity="1.000000"/>
		<rect id="Прямоугольник 6" x="117.000000" y="430.000000" rx="27.500000" width="192.000000" height="55.000000" fill="#4BA340" fill-opacity="1.000000"/>
		<rect id="Прямоугольник 6" x="117.000000" y="211.000000" rx="27.500000" width="365.000000" height="55.000000" fill="#0D0D0D" fill-opacity="1.000000"/>
		<rect id="Прямоугольник 6" x="117.000000" y="211.000000" rx="27.500000" width="192.000000" height="55.000000" fill="#4BA340" fill-opacity="1.000000"/>
		<rect id="Прямоугольник 7" x="117.000000" y="111.000000" rx="17.500000" width="107.000000" height="35.000000" fill="#3A3A3A" fill-opacity="0.451429"/>
		<rect id="Прямоугольник 7" x="117.000000" y="174.000000" rx="13.000000" width="45.000000" height="26.000000" fill="#41993A" fill-opacity="0.411429"/>
		<rect id="Прямоугольник 7" x="168.000000" y="174.000000" rx="13.000000" width="45.000000" height="26.000000" fill="#41993A" fill-opacity="0.411429"/>
		<rect id="Прямоугольник 7" x="117.000000" y="395.000000" rx="13.000000" width="45.000000" height="26.000000" fill="#41993A" fill-opacity="0.411429"/>
		<rect id="Прямоугольник 7" x="168.000000" y="395.000000" rx="13.000000" width="45.000000" height="26.000000" fill="#41993A" fill-opacity="0.411429"/>
		<rect id="Прямоугольник 7" x="230.000000" y="111.000000" rx="17.500000" width="178.000000" height="35.000000" fill="#3A3A3A" fill-opacity="0.451429"/>
		<rect id="Прямоугольник 7" x="117.000000" y="332.000000" rx="17.500000" width="182.000000" height="35.000000" fill="#3A3A3A" fill-opacity="0.451429"/>
		<rect id="Прямоугольник 7" x="305.000000" y="332.000000" rx="17.500000" width="103.000000" height="35.000000" fill="#3A3A3A" fill-opacity="0.451429"/>
	</g>
</svg>
