<svg width="600.000000" height="600.000000" viewBox="0 0 600 600" fill="none" xmlns="http://www.w3.org/2000/svg" xmlns:xlink="http://www.w3.org/1999/xlink">
	<desc>
			Created with Pixso.
	</desc>
	<defs>
		<clipPath id="clip3_1">
			<rect id="Дриббл-шот" width="600.000000" height="600.000000" fill="white" fill-opacity="0"/>
		</clipPath>
	</defs>
	<g clip-path="url(#clip3_1)">
		<rect id="Прямоугольник 4" x="35.000000" y="33.000000" rx="117.000000" width="531.000000" height="533.000000" fill="#1D2541" fill-opacity="1.000000"/>
		<rect id="Прямоугольник 5" x="124.000000" y="119.000000" rx="40.000000" width="353.000000" height="168.000000" fill="#121212" fill-opacity="1.000000"/>
		<rect id="Прямоугольник 5" x="124.000000" y="313.000000" rx="40.000000" width="353.000000" height="168.000000" fill="#121212" fill-opacity="1.000000"/>
		<rect id="Прямоугольник 6" x="142.000000" y="412.000000" rx="24.000000" width="316.000000" height="48.000000" fill="#0D0D0D" fill-opacity="1.000000"/>
		<rect id="Прямоугольник 6" x="142.000000" y="412.000000" rx="24.000000" width="166.000000" height="48.000000" fill="#4BA340" fill-opacity="1.000000"/>
		<rect id="Прямоугольник 6" x="142.000000" y="222.000000" rx="24.000000" width="316.000000" height="48.000000" fill="#0D0D0D" fill-opacity="1.000000"/>
		<rect id="Прямоугольник 6" x="142.000000" y="222.000000" rx="24.000000" width="166.000000" height="48.000000" fill="#4BA340" fill-opacity="1.000000"/>
		<rect id="Прямоугольник 7" x="142.000000" y="137.000000" rx="15.000000" width="93.000000" height="30.000000" fill="#3A3A3A" fill-opacity="0.451429"/>
		<rect id="Прямоугольник 7" x="142.000000" y="192.000000" rx="11.000000" width="39.000000" height="22.000000" fill="#41993A" fill-opacity="0.411429"/>
		<rect id="Прямоугольник 7" x="187.000000" y="192.000000" rx="11.000000" width="39.000000" height="22.000000" fill="#41993A" fill-opacity="0.411429"/>
		<rect id="Прямоугольник 7" x="142.000000" y="383.000000" rx="11.000000" width="39.000000" height="22.000000" fill="#41993A" fill-opacity="0.411429"/>
		<rect id="Прямоугольник 7" x="187.000000" y="383.000000" rx="11.000000" width="39.000000" height="22.000000" fill="#41993A" fill-opacity="0.411429"/>
		<rect id="Прямоугольник 7" x="240.000000" y="137.000000" rx="15.000000" width="154.000000" height="30.000000" fill="#3A3A3A" fill-opacity="0.451429"/>
		<rect id="Прямоугольник 7" x="142.000000" y="328.000000" rx="15.000000" width="158.000000" height="30.000000" fill="#3A3A3A" fill-opacity="0.451429"/>
		<rect id="Прямоугольник 7" x="306.000000" y="328.000000" rx="15.000000" width="90.000000" height="30.000000" fill="#3A3A3A" fill-opacity="0.451429"/>
	</g>
</svg>
