<svg width="600.000000" height="600.000000" viewBox="0 0 600 600" fill="none" xmlns="http://www.w3.org/2000/svg" xmlns:xlink="http://www.w3.org/1999/xlink">
	<desc>
			Created with Pixso.
	</desc>
	<defs>
		<clipPath id="clip10_1">
			<rect id="nextWhite" width="600.000000" height="600.000000" fill="white" fill-opacity="0"/>
		</clipPath>
	</defs>
	<g clip-path="url(#clip10_1)">
		<rect id="Прямоугольник 8" x="54.008667" y="268.197510" width="42.644756" height="57.604698" fill="#9EB3CD" fill-opacity="1.000000"/>
		<rect id="Прямоугольник 8(-51.43°)" x="167.076782" y="92.519897" width="42.488201" height="57.818665" transform="rotate(51.26 167.076782 92.519897)" fill="#9EB3CD" fill-opacity="1.000000"/>
		<rect id="Прямоугольник 8(-102.86°)" x="375.739502" y="70.821777" width="42.401108" height="57.952145" transform="rotate(102.932 375.739502 70.821777)" fill="#9EB3CD" fill-opacity="1.000000"/>
		<rect id="Прямоугольник 8(-154.29°)" x="522.859131" y="219.452942" width="42.596607" height="57.703766" transform="rotate(154.42 522.859131 219.452942)" fill="#9EB3CD" fill-opacity="1.000000"/>
		<rect id="Прямоугольник 8(154.29°)" x="497.646484" y="426.476685" width="42.596603" height="57.703754" transform="rotate(-154.42 497.646484 426.476685)" fill="#9EB3CD" fill-opacity="1.000000"/>
		<rect id="Прямоугольник 8(102.86°)" x="319.103149" y="536.000000" width="42.401096" height="57.952129" transform="rotate(-102.932 319.103149 536.000000)" fill="#9EB3CD" fill-opacity="1.000000"/>
		<rect id="Прямоугольник 8(51.43°)" x="121.670166" y="465.563354" width="42.488216" height="57.818657" transform="rotate(-51.26 121.670166 465.563354)" fill="#9EB3CD" fill-opacity="1.000000"/>
		<path id="Эллипс 1" d="M293.5 552.48C433.92 552.48 548 438.41 548 297.98C548 157.56 433.92 43.48 293.5 43.48C153.07 43.48 39 157.56 39 297.98C39 438.41 153.07 552.48 293.5 552.48ZM454.76 162.67C485.52 199.28 504.06 246.49 504.06 297.98C504.04 345.8 487.89 393.88 454.75 433.3C424.04 469.95 380.77 496.41 330.05 505.3C282.96 513.63 232.81 506.08 188.24 480.29C146.81 456.41 113.24 418.39 95.68 369.98C79.29 325.06 78.02 274.35 95.68 225.98C112 181.04 143.62 141.38 188.24 115.67C229.64 91.74 279.35 81.68 330.05 90.67C377.15 98.94 421.7 123.19 454.76 162.67Z" fill="#B7CCE7" fill-opacity="1.000000" fill-rule="evenodd"/>
		<circle id="Эллипс 2" cx="293.500000" cy="300.988831" r="28.500000" fill="#8BA0BB" fill-opacity="1.000000"/>
		<path id="Линия 2" d="M294 302L249 149" stroke="#B2CCED" stroke-opacity="1.000000" stroke-width="37.000000" stroke-linecap="round"/>
		<path id="Линия 2" d="M293 302L385 345" stroke="#95AECE" stroke-opacity="1.000000" stroke-width="37.000000" stroke-linecap="round"/>
	</g>
</svg>
