<svg width="600.000000" height="600.000000" viewBox="0 0 600 600" fill="none" xmlns="http://www.w3.org/2000/svg" xmlns:xlink="http://www.w3.org/1999/xlink">
	<desc>
			Created with Pixso.
	</desc>
	<defs>
		<clipPath id="clip8_5">
			<rect id="Дриббл-шот" width="600.000000" height="600.000000" fill="white" fill-opacity="0"/>
		</clipPath>
	</defs>
	<g clip-path="url(#clip8_5)">
		<rect id="Прямоугольник 8" x="45.777344" y="323.508301" width="43.592052" height="58.049259" transform="rotate(-12.4957 45.777344 323.508301)" fill="#202B39" fill-opacity="1.000000"/>
		<rect id="Прямоугольник 8(-51.43°)" x="120.314453" y="125.661011" width="43.058365" height="58.781010" transform="rotate(38.3642 120.314453 125.661011)" fill="#202B39" fill-opacity="1.000000"/>
		<rect id="Прямоугольник 8(-102.86°)" x="323.828613" y="58.162903" width="42.759319" height="59.198627" transform="rotate(90.6162 323.828613 58.162903)" fill="#202B39" fill-opacity="1.000000"/>
		<rect id="Прямоугольник 8(-154.29°)" x="503.061523" y="171.854126" width="43.428391" height="58.309029" transform="rotate(142.242 503.061523 171.854126)" fill="#202B39" fill-opacity="1.000000"/>
		<rect id="Прямоугольник 8(154.29°)" x="523.038818" y="381.110107" width="43.428387" height="58.309025" transform="rotate(-167.233 523.038818 381.110107)" fill="#202B39" fill-opacity="1.000000"/>
		<rect id="Прямоугольник 8(102.86°)" x="368.733154" y="528.353027" width="42.759319" height="59.198616" transform="rotate(-115.608 368.733154 528.353027)" fill="#202B39" fill-opacity="1.000000"/>
		<rect id="Прямоугольник 8(51.43°)" x="156.337036" y="502.721069" width="43.058376" height="58.781010" transform="rotate(-63.3557 156.337036 502.721069)" fill="#202B39" fill-opacity="1.000000"/>
		<path id="Эллипс 1" d="M293 552.48C433.15 552.48 547 438.41 547 297.98C547 157.56 433.15 43.48 293 43.48C152.84 43.48 39 157.56 39 297.98C39 438.41 152.84 552.48 293 552.48ZM453.94 162.67C484.64 199.28 503.14 246.49 503.14 297.98C503.13 345.8 487.01 393.88 453.94 433.3C423.29 469.95 380.1 496.41 329.47 505.3C282.48 513.63 232.43 506.08 187.94 480.29C146.6 456.41 113.1 418.39 95.57 369.98C79.21 325.06 77.94 274.35 95.57 225.98C111.86 181.04 143.41 141.38 187.95 115.67C229.26 91.74 278.88 81.68 329.48 90.67C376.48 98.94 420.94 123.19 453.94 162.67Z" fill="#182C46" fill-opacity="1.000000" fill-rule="evenodd"/>
		<circle id="Эллипс 2" cx="293.500000" cy="300.988831" r="28.500000" fill="#233041" fill-opacity="1.000000"/>
		<line id="Линия 2" x1="293.012695" y1="301.880310" x2="367.343140" y2="140.193542" stroke="#182C46" stroke-opacity="1.000000" stroke-width="37.000000"/>
		<path id="Линия 2" d="M293.01 301.88L364.11 371.94" stroke="#202B39" stroke-opacity="1.000000" stroke-width="37.000000" stroke-linecap="round"/>
	</g>
</svg>
